<?xml version="1.0" encoding="utf-8"?>
<!-- Generator: Adobe Illustrator 25.3.1, SVG Export Plug-In . SVG Version: 6.00 Build 0)  -->
<svg version="1.1" id="レイヤー_1" xmlns="http://www.w3.org/2000/svg" xmlns:xlink="http://www.w3.org/1999/xlink" x="0px"
	 y="0px" viewBox="0 0 100 100" enable-background="new 0 0 100 100" xml:space="preserve">
<rect fill="none" width="100" height="100"/>
<g>
	<path fill="#57534E" d="M87.084,67.247c-1.443-5.138-1.227-10.601,0.618-15.609l2.048-5.556c0.771-2.099-0.305-4.426-2.404-5.197
		c-0.992-0.365-2.087-0.327-3.052,0.105l-7.302,3.276l-6.676-19.581c-0.66-1.95-2.591-3.176-4.636-2.944
		c-3.952,0.431-7.88,1.06-11.769,1.885c-11.096-4.992-24.04-3.663-32.455,1.26c0.455,3.201,0.628,6.436,0.518,9.667
		c-0.069,2.182-1.739,3.977-3.91,4.204c-1.992,0.208-3.994,0.298-5.996,0.27c-1.105,10.764,4.752,25.268,18.136,32.856
		c3.26,1.851,6.756,3.249,10.393,4.157l1.484,2.318c2.323,3.586,6.894,4.973,10.818,3.284l11.112-4.76
		c6.964,2.305,14.127,3.958,21.397,4.938c2.223,0.239,4.22-1.369,4.459-3.593c0.057-0.527,0.009-1.06-0.139-1.569L87.084,67.247z
		 M29.957,33.649c-0.004-2.723,2.2-4.933,4.922-4.938c2.723-0.004,4.933,2.2,4.938,4.922c0.004,2.723-2.2,4.933-4.922,4.938
		C32.172,38.576,29.961,36.372,29.957,33.649C29.957,33.649,29.957,33.649,29.957,33.649z M78.051,75.948l-10.818-4.451
		l-3.091-1.275c0.73-0.456,1.42-0.973,2.063-1.545l2.867,1.175l9.829,4.034L78.051,75.948z M80.447,67.773l-8.554-1.298l-3.23-0.495
		c0.463-0.644,0.878-1.321,1.244-2.025l3.191,0.487l7.681,1.167L80.447,67.773z M74.875,59.914l-3.508,0.085
		c0.181-0.726,0.326-1.461,0.433-2.202l3.539-0.085l6.182-0.147l0.054,2.187L74.875,59.914z M75.648,52.959l-3.67,0.92
		c-0.051-0.722-0.149-1.439-0.294-2.148l3.786-0.95l6.128-1.545l0.533,2.125L75.648,52.959z"/>
	<circle fill="#57534E" cx="34.91" cy="33.638" r="2.411"/>
	<path fill="#57534E" d="M14.386,29.986c0.139,0.201,0.325,0.433,0.533,0.68c1.604,1.743,3.321,3.38,5.139,4.899
		c0.201-3.323,0.255-7.387-0.216-8.5c-0.309-0.701-0.857-1.271-1.545-1.607l-0.131-0.07c-1.557-0.7-3.387-0.005-4.086,1.552
		c-0.37,0.823-0.362,1.766,0.022,2.582C14.18,29.686,14.276,29.841,14.386,29.986z"/>
	<path fill="#57534E" d="M19.015,36.779c-1.545-1.645-3.24-3.142-5.061-4.474c-0.144-0.09-0.297-0.165-0.456-0.224
		c-0.249-0.085-0.51-0.131-0.773-0.139h-0.077c-1.134,0.001-2.142,0.721-2.511,1.793c-0.458,1.388,0.276,2.888,1.654,3.377
		c0.181,0.056,0.368,0.092,0.556,0.108C14.578,37.272,16.81,37.125,19.015,36.779z"/>
</g>
</svg>
