<?xml version="1.0" encoding="utf-8"?>
<!-- Generator: Adobe Illustrator 25.3.1, SVG Export Plug-In . SVG Version: 6.00 Build 0)  -->
<svg version="1.1" id="レイヤー_1" xmlns="http://www.w3.org/2000/svg" xmlns:xlink="http://www.w3.org/1999/xlink" x="0px"
	 y="0px" viewBox="0 0 100 100" style="enable-background:new 0 0 100 100;" xml:space="preserve">
<style type="text/css">
	.st0{fill:none;}
	.st1{fill:#57534E;}
</style>
<rect y="0" class="st0" width="100" height="100"/>
<g>
	<path class="st1" d="M85.4,35.4c-2.7-4.4-5.3-8.6-11.4-8.6s-8.5,4.3-10.8,8.5c-1.5,3-3.5,5.7-5.8,8.1c-4.5-4.1-7.3-8.5-9.8-12.4
		c-3.9-6.1-7.3-11.4-15.4-11.4c-7.9,0-11,5.5-14.3,11.4c-2.7,4.9-5.8,10.4-12.3,14.7l2.5,3.8c0.9-0.6,1.7-1.2,2.5-1.9
		c5.7-4.6,8.7-9.9,11.2-14.4c3.4-6,5.3-9.1,10.3-9.1c5.4,0,7.5,3,11.6,9.3c2.6,4.3,5.6,8.3,9.1,11.9l0,0c0.6,0.6,1.2,1.4,1.6,2.1
		c2.4,4.3-0.2,8.1-5.2,11h21.3c0.6-3.5-1.6-7.6-6.2-11c-0.9-0.7-1.9-1.3-2.9-1.9c2.2-2.5,4.1-5.2,5.6-8.1c2.4-4.3,3.6-6.2,6.9-6.2
		c3.2,0,4.8,2.1,7.5,6.4c1.9,3,4.1,6.6,7.8,9.7c0.8,0.7,1.6,1.3,2.5,1.9l1.3-1.9l1.3-1.9C89.9,42.7,87.5,38.8,85.4,35.4z"/>
	<path class="st1" d="M37.4,66.5C36.9,67,36.4,67.5,36,68c-0.4,0.5-0.8,1.1-1.1,1.7c-3,5.7-1,13.4,6.2,17.2h37.8
		c-9.9-6-15.5-12.7-14.7-17.2c0.1-0.6,0.3-1.2,0.7-1.7c0.4-0.6,1-1.1,1.6-1.5h10.7v9.1H84v-9.1h9.1V62H6.9v4.5h11.3v9.1H25v-9.1
		H37.4z"/>
</g>
</svg>
