<?xml version="1.0" encoding="utf-8"?>
<!-- Generator: Adobe Illustrator 25.3.1, SVG Export Plug-In . SVG Version: 6.00 Build 0)  -->
<svg version="1.1" id="レイヤー_1" xmlns="http://www.w3.org/2000/svg" xmlns:xlink="http://www.w3.org/1999/xlink" x="0px"
	 y="0px" viewBox="0 0 113.4 113.4" style="enable-background:new 0 0 113.4 113.4;" xml:space="preserve">
<style type="text/css">
	.st0{fill:none;}
	.st1{fill:#57534E;}
</style>
<g id="レイヤー_2_1_">
	<g id="waku">
		<rect x="6.7" y="6.7" class="st0" width="100" height="100"/>
	</g>
	<g id="編集モード">
		<path class="st1" d="M21,70.5c5.1-1.5,10-3.6,14.6-6.2c4.8-2.7,9.2-5.8,13.9-8.7c4.3-2.7,8.8-5.3,13.8-6.7
			c4.8-1.3,9.9-1.5,14.9-0.5c6,1.2,11.5,3.8,16.9,6.3V33H50.8c-8.3-5.4-17.3-10-29.9-6.8v4.2c4.5-1.1,9.1-1.2,13.6-0.2
			c3.1,0.6,6.1,1.6,8.9,3.1c3,1.6,5.8,3.6,8.6,5.5c1.6,1.1,3,2.3,4.6,3.4s3.1,2.2,4.7,3.2c-11.5,3.5-20.5,12-31.1,17.3
			c-3,1.5-6.1,2.8-9.4,3.8V70.5z"/>
		<path class="st1" d="M89.1,71.7L86,60.9c-0.3-1.2-1.6-1.9-2.7-1.5c-0.7,0.2-1.2,0.7-1.5,1.4l-3.2,9.1L76,60.9
			c-0.3-0.9-1.1-1.6-2.1-1.6c-0.4,0-0.9,0.1-1.2,0.3c-0.4,0.3-0.8,0.7-0.9,1.1l-4.2,12c-0.4-0.5-0.6-2.9-0.6-5.9v-6.5h-3.5L61.1,62
			l-4.4,2.9v2h6.3c-0.1,1.4-0.1,2.8-0.1,4.2c0,1.5,0,3.1,0.2,4.6c0.2,1.8,0.7,3.5,1.5,5.1c0.3,0.6,0.8,1.2,1.3,1.7v8.3h4v-8.3h15.4
			v8.3h4L89.1,71.7z"/>
	</g>
</g>
</svg>
