<?xml version="1.0" encoding="utf-8"?>
<!-- Generator: Adobe Illustrator 25.3.1, SVG Export Plug-In . SVG Version: 6.00 Build 0)  -->
<svg version="1.1" id="レイヤー_1" xmlns="http://www.w3.org/2000/svg" xmlns:xlink="http://www.w3.org/1999/xlink" x="0px"
	 y="0px" viewBox="0 0 100 100" style="enable-background:new 0 0 100 100;" xml:space="preserve">
<style type="text/css">
	.st0{fill:none;}
	.st1{fill:#57534E;}
</style>
<g id="レイヤー_2_1_">
	<g id="waku">
		<rect y="0" class="st0" width="100" height="100"/>
	</g>
	<g id="編集モード">
		<path class="st1" d="M81.8,36.5c-2.1-3.6-6.7-4.8-10.3-2.7l2,3.5c1.7-1,3.8-0.4,4.8,1.3c0.5,0.8,0.6,1.8,0.4,2.7
			c-0.2,0.7-0.6,1.3-1.2,1.8c-0.3-0.3-0.6-0.5-0.9-0.8c-1.8-1.3-4-1.9-6.2-1.6l0.6,4c2.4-0.3,4.6,1.3,5,3.8c0.3,2.4-1.3,4.6-3.8,5
			l0.6,4c4.6-0.6,7.8-4.9,7.2-9.5c-0.1-0.5-0.2-0.9-0.3-1.3C82.8,44.2,83.7,39.9,81.8,36.5z"/>
		<path class="st1" d="M40.6,22.3c1.8-0.9,4.1-0.2,5,1.6c0.4,0.9,0.5,1.9,0.2,2.8l3.8,1.2c0.6-1.9,0.5-4.1-0.5-5.9
			c-0.3-0.6-0.7-1.2-1.2-1.7c2-3.1,6.1-4.1,9.3-2.1c1.9,1.2,3,3.2,3.1,5.4c-3.2,1.7-5,5.2-4.4,8.8l3.9-0.7c-0.5-2.3,0.9-4.6,3.2-5.2
			c2.3-0.5,4.6,0.9,5.2,3.2c0,0.2,0.1,0.3,0.1,0.5l3.9-0.7c-0.7-3.9-4.1-6.8-8.1-6.9c-0.7-5.9-6-10.1-11.9-9.4
			c-3.2,0.4-6.1,2.2-7.8,4.9c-4-1.3-8.4,0.9-9.7,4.9l3.8,1.2C39.1,23.4,39.7,22.7,40.6,22.3z"/>
		<path class="st1" d="M25.5,34.8c-0.7-2.1,0.5-4.3,2.5-5c1.6-0.5,3.4,0.1,4.4,1.4l3.2-2.3c-2.6-3.5-7.6-4.2-11.1-1.6
			c-3.1,2.3-4.1,6.4-2.4,9.8c-3.5,3.9-3.3,9.9,0.6,13.5c1.3,1.2,2.9,2,4.7,2.3l0.7-3.9c-3-0.6-5-3.4-4.4-6.4c0.6-3,3.4-5,6.4-4.4
			l0.7-3.9C29.1,33.9,27.2,34.1,25.5,34.8z"/>
		<path class="st1" d="M62.2,86c-0.8-2.9-4.6-14.1-1.7-21.4c0.7-1.6,1.7-3.1,2.8-4.5c1.7-2,3.5-3.9,5.5-5.6l-2.5-3.1
			c-2.4,1.6-4.6,3.4-6.7,5.3c-0.7,0.6-1.3,1.3-1.9,2c0.1-3,0.6-6,1.5-8.9c0.8-2.2,1.8-4.4,3.2-6.3c1.4-2,3.1-3.8,4.9-5.4l-2.3-3.3
			c-2.5,1.4-4.8,3.1-6.8,5.1c-2.1,2.1-3.9,4.4-5.4,7c-0.7,1.3-1.3,2.6-1.9,3.9c-0.2-1.2-0.4-2.4-0.7-3.7c-0.8-3.3-2.1-6.4-3.8-9.3
			c-1.7-2.8-3.8-5.3-6.2-7.5l-3,2.7c1.7,2.2,3.2,4.7,4.3,7.3c1,2.5,1.6,5.2,1.8,7.9c0.1,2.1,0.1,4.1-0.1,6.2
			c-1.1-1.7-2.3-3.3-3.6-4.7c-2.1-2.2-4.3-4.3-6.6-6.2l-2.7,2.9c2,2,3.8,4.1,5.4,6.3c1.3,1.8,2.4,3.8,3.2,5.9
			c0.6,1.9,1.1,3.9,1.3,5.9c0.1,0.9,0.2,1.9,0.2,2.9c0,0.5,0,1.1,0,1.6C40.4,75,38.9,80.7,36.4,86H62.2z"/>
	</g>
</g>
</svg>
