<?xml version="1.0" encoding="utf-8"?>
<!-- Generator: Adobe Illustrator 25.3.1, SVG Export Plug-In . SVG Version: 6.00 Build 0)  -->
<svg version="1.1" id="レイヤー_1" xmlns="http://www.w3.org/2000/svg" xmlns:xlink="http://www.w3.org/1999/xlink" x="0px"
	 y="0px" viewBox="0 0 300 40" style="enable-background:new 0 0 300 40;" xml:space="preserve">
<style type="text/css">
	.st0{fill:none;}
	.st1{fill:#292524;}
</style>
<rect class="st0" width="300" height="40"/>
<g>
	<path class="st1" d="M68,6.6c0-0.1,0-0.1,0-0.2L65.3,3C65.3,3,65.2,3,65.1,3C65.1,2.9,65,3,65,3L41.5,21.5
		c-3.7,3.2-5.9,7.1-6.8,12.2h-2.6c-1.5-8.4-7-13.8-14.8-14.6L34.3,5.3c0.1,0,0.1-0.1,0.1-0.2s0-0.1-0.1-0.2l-2.9-3.1
		c-0.1-0.1-0.2-0.1-0.3,0L8,22.2C3.5,26.4,1.5,31.4,1.5,38c0,0.1,0.1,0.2,0.2,0.2h4.2c0.1,0,0.2-0.1,0.2-0.2
		c0-8.5,4.4-14.7,10.5-14.7c6.2,0,10.8,5.8,11.4,14.4c0,0.1,0.1,0.2,0.2,0.2h10.3c0.1,0,0.2-0.1,0.2-0.2c0.6-8.9,4.7-14.4,10.8-14.4
		c6.6,0,11.1,6,11.1,14.7c0,0.1,0.1,0.2,0.2,0.2h4.2c0.1,0,0.2-0.1,0.2-0.2c0-10.2-5.4-17.3-14-18.7L67.9,6.8
		C67.9,6.8,67.9,6.7,68,6.6z"/>
	<g>
		<path class="st1" d="M103.1,22c-1.7,0-3.1,0.8-4,1.6v-9.3c0-0.1-0.1-0.2-0.2-0.2h-2.6c-0.1,0-0.2,0.1-0.2,0.2v22.3
			c0,0.1,0.1,0.2,0.2,0.2h2.6c0.1,0,0.2-0.1,0.2-0.2v-9.6c0.7-1,2-2.1,3.5-2.1c2,0,3,1.2,3,3.8v8.2c0,0.1,0.1,0.2,0.2,0.2h2.6
			c0.1,0,0.2-0.1,0.2-0.2l0.1-6.4c0,0,0-0.1,0-0.1v-2.1C108.7,24.4,106.6,22,103.1,22z"/>
		<path class="st1" d="M135.4,22.3c-1.3,0-2.8,0.4-3.9,0.9v-8.5c0-0.1-0.1-0.2-0.2-0.2h-2.6c-0.1,0-0.2,0.1-0.2,0.2V37
			c0,0.1,0.1,0.2,0.2,0.2h2.6c0.1,0,0.2-0.1,0.2-0.2v-0.7c0.9,0.7,2.3,1.3,3.9,1.3c4.3,0,7.4-3.1,7.4-7.7
			C142.7,25.4,139.8,22.3,135.4,22.3z M139.5,29.6c0,3-1.7,5-4.2,5c-1.6,0.1-2.8-0.4-3.8-1.6v-7.1c0.8-0.5,2.1-1,3.9-1
			C137.8,24.8,139.5,26.8,139.5,29.6z"/>
		<path class="st1" d="M168.7,34.4c-0.7,0.2-2,0.2-2.5,0c-0.4-0.3-0.5-0.6-0.5-1.7v-7.5h2.8c0.1,0,0.2-0.1,0.2-0.2v-2.3
			c0-0.1-0.1-0.2-0.2-0.2h-2.8v-4.7c0-0.1-0.1-0.2-0.2-0.2h-2.6c-0.1,0-0.2,0.1-0.2,0.2v4.7h-2.3c-0.1,0-0.2,0.1-0.2,0.2V25
			c0,0.1,0.1,0.2,0.2,0.2h2.2v8c0,1.7,0.5,2.9,1.5,3.7c0.7,0.4,1.6,0.5,2.6,0.5c0.8,0,1.6-0.1,2.2-0.3c0.1,0,0.2-0.1,0.2-0.2v-2.3
			c0-0.1,0-0.1-0.1-0.2C168.9,34.4,168.8,34.3,168.7,34.4z"/>
		<path class="st1" d="M196.1,28.2l6.8-5.3c0.1-0.1,0.1-0.2,0.1-0.3s-0.1-0.2-0.2-0.2H199c-0.1,0-0.1,0-0.2,0.1l-6.6,5.2V14.5
			c0-0.1-0.1-0.2-0.2-0.2h-2.7c-0.1,0-0.2,0.1-0.2,0.2V37c0,0.1,0.1,0.2,0.2,0.2h2.7c0.1,0,0.2-0.1,0.2-0.2v-5.6l1.6-1.3l5.7,7
			c0,0.1,0.1,0.1,0.2,0.1h3.3c0.1,0,0.2-0.1,0.2-0.1s0-0.2,0-0.3L196.1,28.2z"/>
		<path class="st1" d="M123.5,34.4V28c0-1.9-0.4-3.3-1.3-4.3c-1-1-2.5-1.5-4.5-1.5c-2,0-3.9,0.8-4.8,1.3c-0.1,0.1-0.2,0.2-0.1,0.3
			l1,2.2c0,0.1,0.1,0.1,0.2,0.1c0.1,0,0.1,0,0.2,0c0.7-0.5,2.3-1.2,3.6-1.2c2,0,2.9,0.8,2.9,2.9v0.2c-3-0.1-5.2,0.4-6.5,1.4
			c-1.8,1.3-2.5,3.3-1.8,5.5c0.7,1.7,2,2.5,3.9,2.7c0.2,0,0.4,0,0.6,0c1.6,0,2.9-0.4,4-1.1c0,0.2,0.1,0.3,0.1,0.5l0,0.2
			c0,0.1,0.1,0.2,0.2,0.2h2.6c0.1,0,0.2,0,0.2-0.1c0-0.1,0-0.2,0-0.2C123.7,36.6,123.6,35,123.5,34.4z M120.6,30.5v2.8
			c-1,1.1-1.9,1.3-3.2,1.3c-1,0-1.8-0.4-2.2-1.1c-0.2-0.5-0.2-1,0-1.5c0.2-0.4,0.6-0.8,1.2-1c0.6-0.3,1.4-0.5,3.3-0.5
			C120,30.5,120.3,30.5,120.6,30.5z"/>
		<path class="st1" d="M156.7,34.4V28c0-1.9-0.4-3.3-1.3-4.3c-1-1-2.5-1.5-4.5-1.5c-2,0-3.9,0.8-4.8,1.3c-0.1,0.1-0.2,0.2-0.1,0.3
			l1,2.2c0,0.1,0.1,0.1,0.2,0.1c0.1,0,0.2,0,0.2,0c0.7-0.5,2.3-1.2,3.6-1.2c2,0,2.9,0.8,2.9,2.9v0.2c-3-0.1-5.2,0.4-6.5,1.4
			c-1.8,1.3-2.5,3.3-1.8,5.5c0.7,1.7,2,2.5,3.9,2.7c0.2,0,0.4,0,0.6,0c1.6,0,2.9-0.4,4-1.1c0,0.2,0.1,0.3,0.1,0.5l0,0.2
			c0,0.1,0.1,0.2,0.2,0.2h2.6c0.1,0,0.2,0,0.2-0.1c0-0.1,0-0.2,0-0.2C156.9,36.6,156.8,35,156.7,34.4z M153.8,30.5v2.8
			c-1,1.1-1.9,1.3-3.2,1.3c-1,0-1.8-0.4-2.2-1.1c-0.2-0.5-0.2-1,0-1.5c0.2-0.4,0.6-0.8,1.2-1c0.6-0.3,1.4-0.5,3.3-0.5
			C153.2,30.5,153.5,30.5,153.8,30.5z"/>
		<path class="st1" d="M184,34.4V28c0-1.9-0.4-3.3-1.3-4.3c-1-1-2.5-1.5-4.5-1.5c-2,0-3.9,0.8-4.8,1.3c-0.1,0.1-0.2,0.2-0.1,0.3
			l1,2.2c0,0.1,0.1,0.1,0.2,0.1c0.1,0,0.1,0,0.2,0c0.7-0.5,2.3-1.2,3.6-1.2c2,0,2.8,0.8,2.8,2.9v0.2c-3.1-0.1-5.2,0.4-6.5,1.4
			c-1.8,1.3-2.5,3.3-1.8,5.5c0.7,1.7,2,2.5,3.9,2.7c0.2,0,0.4,0,0.6,0c1.6,0,2.9-0.4,4-1.1c0,0.2,0.1,0.3,0.1,0.5l0,0.2
			c0,0.1,0.1,0.2,0.2,0.2h2.6c0.1,0,0.2,0,0.2-0.1c0-0.1,0-0.2,0-0.2C184.2,36.6,184.1,35,184,34.4z M181,30.5v2.8
			c-0.7,1-1.6,1.3-3.2,1.3c-1,0-1.8-0.4-2.2-1.1c-0.2-0.5-0.2-1,0-1.5c0.2-0.4,0.6-0.8,1.2-1c0.6-0.3,1.4-0.5,3.3-0.5
			C180.4,30.5,180.7,30.5,181,30.5z"/>
		<path class="st1" d="M276.6,15.4h-14.4c-0.1,0-0.2,0.1-0.2,0.2V37c0,0.1,0.1,0.2,0.2,0.2h14.4c0.1,0,0.2-0.1,0.2-0.2v-2.7
			c0-0.1-0.1-0.2-0.2-0.2h-11.3v-6.3H276c0.1,0,0.2-0.1,0.2-0.2v-2.4c0-0.1-0.1-0.2-0.2-0.2h-10.8v-6.5h11.3c0.1,0,0.2-0.1,0.2-0.2
			v-2.5C276.8,15.5,276.7,15.4,276.6,15.4z"/>
		<path class="st1" d="M294.9,25.5c1.4-0.7,2.7-2.2,2.7-4.3c0-3.6-2.6-5.7-6.9-5.7h-7.6c-0.1,0-0.2,0.1-0.2,0.2v21.2
			c0,0.1,0.1,0.2,0.2,0.2h7.5c5.1,0,8-2.3,8-6.5C298.5,28.4,297.2,26.5,294.9,25.5z M290.3,24h-4v-5.7h4.1c2.8,0,4,0.9,4,2.9
			C294.3,23.2,293.1,24,290.3,24z M286.3,27h4.2c3.3,0,4.8,1.1,4.8,3.5s-1.5,3.5-5,3.5h-4V27z"/>
		<path class="st1" d="M258.1,15.4h-2.8c-0.1,0-0.2,0.1-0.2,0.2L250.6,32l-4.5-16.5c0-0.1-0.1-0.2-0.2-0.2h-3.1
			c-0.1,0-0.2,0.1-0.2,0.2L238.2,32l-4.4-16.5c0-0.1-0.1-0.2-0.2-0.2h-2.9c-0.1,0-0.2,0-0.2,0.1c0,0.1-0.1,0.1,0,0.2l6,21.4
			c0,0.1,0.1,0.2,0.2,0.2h3.1c0.1,0,0.2-0.1,0.2-0.2l4.4-16.5l4.4,16.5c0,0.1,0.1,0.2,0.2,0.2h3.1c0.1,0,0.2-0.1,0.2-0.2l6-21.4
			c0-0.1,0-0.2,0-0.2C258.2,15.4,258.2,15.4,258.1,15.4z"/>
		<path class="st1" d="M91.2,33.6c0-0.1-0.1-0.1-0.2-0.1c-0.1,0-0.1,0-0.2,0c-0.9,0.5-2,1.1-3.9,1.1c-2.5,0-4.4-2-4.4-4.8
			S84.5,25,87,25c1.4,0,2.8,0.5,3.4,1.1c0.1,0,0.1,0.1,0.2,0c0.1,0,0.1-0.1,0.2-0.1l1.2-2c0.1-0.1,0-0.3-0.1-0.3
			c-1.4-0.9-3.1-1.4-4.9-1.4c-4.2,0-7.6,3.4-7.6,7.7c0,4.3,3.3,7.6,7.6,7.6c2.2,0,3.6-0.5,5.1-1.2c0.1-0.1,0.2-0.2,0.1-0.3
			L91.2,33.6z"/>
		<path class="st1" d="M211.8,22.3c-4,0-7,3.2-7,7.7c0,4.4,3.1,7.6,7.2,7.6c2.9,0,4.8-1,6-1.8c0.1-0.1,0.1-0.2,0.1-0.3l-1.2-2
			c0-0.1-0.1-0.1-0.2-0.1c-0.1,0-0.1,0-0.2,0c-1.1,0.8-2.4,1.6-4.6,1.6c-2.2,0-3.8-1.6-4-4.1l10.5-0.1c0.1,0,0.2-0.1,0.2-0.2v-0.5
			C218.8,25.3,216.1,22.3,211.8,22.3z M208.4,28c0.4-2.3,2.1-3.1,3.5-3.1c2.1,0,3.4,1,3.7,3.1H208.4z"/>
	</g>
</g>
</svg>
