<?xml version="1.0" encoding="utf-8"?>
<!-- Generator: Adobe Illustrator 25.3.1, SVG Export Plug-In . SVG Version: 6.00 Build 0)  -->
<svg version="1.1" id="レイヤー_1" xmlns="http://www.w3.org/2000/svg" xmlns:xlink="http://www.w3.org/1999/xlink" x="0px"
	 y="0px" viewBox="0 0 120 120" style="enable-background:new 0 0 120 120;" xml:space="preserve">
<style type="text/css">
	.st0{fill:none;}
	.st1{fill:#292524;}
</style>
<rect class="st0" width="120" height="120"/>
<g>
	<path class="st1" d="M114.1,11.9c0-0.2,0-0.2,0-0.3l-4.3-5.4c0,0-0.2,0-0.3,0c0-0.2-0.2,0-0.2,0L71.8,35.7
		c-5.9,5.1-9.4,11.3-10.9,19.5h-4.1c-2.4-13.4-11.2-22-23.6-23.3l27.1-22c0.2,0,0.2-0.2,0.2-0.3s0-0.2-0.2-0.3l-4.6-4.9
		c-0.2-0.2-0.3-0.2-0.5,0L18.3,36.8C11.1,43.5,7.9,51.5,7.9,62c0,0.2,0.2,0.3,0.3,0.3H15c0.2,0,0.3-0.2,0.3-0.3
		c0-13.6,7-23.5,16.8-23.5c9.9,0,17.2,9.3,18.2,23c0,0.2,0.2,0.3,0.3,0.3H67c0.2,0,0.3-0.2,0.3-0.3c1-14.2,7.5-23,17.2-23
		c10.5,0,17.7,9.6,17.7,23.5c0,0.2,0.2,0.3,0.3,0.3h6.7c0.2,0,0.3-0.2,0.3-0.3c0-16.3-8.6-27.6-22.3-29.8l26.7-19.9
		C113.9,12.2,113.9,12.1,114.1,11.9z"/>
	<g>
		<path class="st1" d="M66.9,98.5H56.1c-0.1,0-0.2,0.1-0.2,0.2v16.1c0,0.1,0.1,0.2,0.2,0.2h10.8c0.1,0,0.2-0.1,0.2-0.2v-2
			c0-0.1-0.1-0.2-0.2-0.2h-8.5v-4.7h8.1c0.1,0,0.2-0.1,0.2-0.2v-1.8c0-0.1-0.1-0.2-0.2-0.2h-8.1v-4.9h8.5c0.1,0,0.2-0.1,0.2-0.2
			v-1.9C67.1,98.5,67,98.5,66.9,98.5z"/>
		<path class="st1" d="M80.7,106.1c1.1-0.5,2-1.7,2-3.2c0-2.7-2-4.3-5.2-4.3h-5.7c-0.1,0-0.2,0.1-0.2,0.2v16c0,0.1,0.1,0.2,0.2,0.2
			h5.6c3.8,0,6-1.7,6-4.9C83.4,108.2,82.4,106.8,80.7,106.1z M77.2,104.9h-3v-4.3h3.1c2.1,0,3,0.7,3,2.2
			C80.3,104.3,79.4,104.9,77.2,104.9z M74.2,107.2h3.2c2.5,0,3.6,0.8,3.6,2.6s-1.1,2.6-3.8,2.6h-3V107.2z"/>
		<path class="st1" d="M53,98.5h-2.1c-0.1,0-0.2,0.1-0.2,0.2L47.4,111L44,98.5c0-0.1-0.1-0.2-0.2-0.2h-2.3c-0.1,0-0.2,0.1-0.2,0.2
			L38,111l-3.3-12.4c0-0.1-0.1-0.2-0.2-0.2h-2.2c-0.1,0-0.2,0-0.2,0.1s-0.1,0.1,0,0.2l4.5,16.1c0,0.1,0.1,0.2,0.2,0.2h2.3
			c0.1,0,0.2-0.1,0.2-0.2l3.3-12.4l3.3,12.4c0,0.1,0.1,0.2,0.2,0.2h2.3c0.1,0,0.2-0.1,0.2-0.2l4.5-16.1c0-0.1,0-0.2,0-0.2
			C53.1,98.5,53.1,98.5,53,98.5z"/>
	</g>
	<g>
		<path class="st1" d="M23.8,78c-1.3,0-2.3,0.6-3,1.2v-7c0-0.1-0.1-0.2-0.2-0.2h-2c-0.1,0-0.2,0.1-0.2,0.2V89c0,0.1,0.1,0.2,0.2,0.2
			h2c0.1,0,0.2-0.1,0.2-0.2v-7.2c0.5-0.8,1.5-1.6,2.6-1.6c1.5,0,2.3,0.9,2.3,2.9v6.2c0,0.1,0.1,0.2,0.2,0.2h2c0.1,0,0.2-0.1,0.2-0.2
			l0.1-4.8v-0.1v-1.6C28,79.8,26.4,78,23.8,78z"/>
		<path class="st1" d="M48.1,78.2c-1,0-2.1,0.3-2.9,0.7v-6.4c0-0.1-0.1-0.2-0.2-0.2h-2c-0.1,0-0.2,0.1-0.2,0.2v16.8
			c0,0.1,0.1,0.2,0.2,0.2h2c0.1,0,0.2-0.1,0.2-0.2v-0.5c0.7,0.5,1.7,1,2.9,1c3.2,0,5.6-2.3,5.6-5.8C53.6,80.5,51.4,78.2,48.1,78.2z
			 M51.2,83.7c0,2.3-1.3,3.8-3.2,3.8c-1.2,0.1-2.1-0.3-2.9-1.2v-5.3c0.6-0.4,1.6-0.8,2.9-0.8C49.9,80.1,51.2,81.6,51.2,83.7z"/>
		<path class="st1" d="M73.1,87.3c-0.5,0.2-1.5,0.2-1.9,0c-0.3-0.2-0.4-0.5-0.4-1.3v-5.6H73c0.1,0,0.2-0.1,0.2-0.2v-1.7
			c0-0.1-0.1-0.2-0.2-0.2h-2.1v-3.5c0-0.1-0.1-0.2-0.2-0.2h-2c-0.1,0-0.2,0.1-0.2,0.2v3.5h-1.7c-0.1,0-0.2,0.1-0.2,0.2v1.7
			c0,0.1,0.1,0.2,0.2,0.2h1.7v6c0,1.3,0.4,2.2,1.1,2.8c0.5,0.3,1.2,0.4,2,0.4c0.6,0,1.2-0.1,1.7-0.2c0.1,0,0.2-0.1,0.2-0.2v-1.7
			c0-0.1,0-0.1-0.1-0.2C73.3,87.3,73.2,87.2,73.1,87.3z"/>
		<path class="st1" d="M93.8,82.6l5.1-4c0.1-0.1,0.1-0.2,0.1-0.2c0-0.1-0.1-0.2-0.2-0.2h-2.9c-0.1,0-0.1,0-0.2,0.1l-5,3.9v-9.9
			c0-0.1-0.1-0.2-0.2-0.2h-2c-0.1,0-0.2,0.1-0.2,0.2v16.9c0,0.1,0.1,0.2,0.2,0.2h2c0.1,0,0.2-0.1,0.2-0.2V85l1.2-1l4.3,5.3
			c0,0.1,0.1,0.1,0.2,0.1h2.5c0.1,0,0.2-0.1,0.2-0.1s0-0.2,0-0.2L93.8,82.6z"/>
		<path class="st1" d="M39.1,87.3v-4.8c0-1.4-0.3-2.5-1-3.2c-0.8-0.8-1.9-1.1-3.4-1.1c-1.5,0-2.9,0.6-3.6,1
			c-0.1,0.1-0.2,0.2-0.1,0.2l0.8,1.7c0,0.1,0.1,0.1,0.2,0.1s0.1,0,0.2,0c0.5-0.4,1.7-0.9,2.7-0.9c1.5,0,2.2,0.6,2.2,2.2v0.2
			c-2.3-0.1-3.9,0.3-4.9,1.1c-1.4,1-1.9,2.5-1.4,4.1c0.5,1.3,1.5,1.9,2.9,2c0.2,0,0.3,0,0.5,0c1.2,0,2.2-0.3,3-0.8
			c0,0.2,0.1,0.2,0.1,0.4v0.2c0,0.1,0.1,0.2,0.2,0.2h2c0.1,0,0.2,0,0.2-0.1c0-0.1,0-0.2,0-0.2C39.3,89,39.2,87.8,39.1,87.3z
			 M36.9,84.4v2.1c-0.8,0.8-1.4,1-2.4,1c-0.8,0-1.4-0.3-1.7-0.8c-0.2-0.4-0.2-0.8,0-1.1c0.2-0.3,0.5-0.6,0.9-0.8
			c0.5-0.2,1.1-0.4,2.5-0.4C36.5,84.4,36.7,84.4,36.9,84.4z"/>
		<path class="st1" d="M64.1,87.3v-4.8c0-1.4-0.3-2.5-1-3.2c-0.8-0.8-1.9-1.1-3.4-1.1c-1.5,0-2.9,0.6-3.6,1
			c-0.1,0.1-0.2,0.2-0.1,0.2l0.8,1.7c0,0.1,0.1,0.1,0.2,0.1c0.1,0,0.2,0,0.2,0c0.5-0.4,1.7-0.9,2.7-0.9c1.5,0,2.2,0.6,2.2,2.2v0.2
			c-2.3-0.1-3.9,0.3-4.9,1.1c-1.4,1-1.9,2.5-1.4,4.1c0.5,1.3,1.5,1.9,2.9,2c0.2,0,0.3,0,0.5,0c1.2,0,2.2-0.3,3-0.8
			c0,0.2,0.1,0.2,0.1,0.4v0.2c0,0.1,0.1,0.2,0.2,0.2h2c0.1,0,0.2,0,0.2-0.1c0-0.1,0-0.2,0-0.2C64.3,89,64.2,87.8,64.1,87.3z
			 M61.9,84.4v2.1c-0.8,0.8-1.4,1-2.4,1c-0.8,0-1.4-0.3-1.7-0.8c-0.2-0.4-0.2-0.8,0-1.1c0.2-0.3,0.5-0.6,0.9-0.8
			c0.5-0.2,1.1-0.4,2.5-0.4C61.5,84.4,61.7,84.4,61.9,84.4z"/>
		<path class="st1" d="M84.6,87.3v-4.8c0-1.4-0.3-2.5-1-3.2c-0.8-0.8-1.9-1.1-3.4-1.1s-2.9,0.6-3.6,1c-0.1,0.1-0.2,0.2-0.1,0.2
			l0.8,1.7c0,0.1,0.1,0.1,0.2,0.1c0.1,0,0.1,0,0.2,0c0.5-0.4,1.7-0.9,2.7-0.9c1.5,0,2.1,0.6,2.1,2.2v0.2c-2.3-0.1-3.9,0.3-4.9,1.1
			c-1.4,1-1.9,2.5-1.4,4.1c0.5,1.3,1.5,1.9,2.9,2c0.2,0,0.3,0,0.5,0c1.2,0,2.2-0.3,3-0.8c0,0.2,0.1,0.2,0.1,0.4v0.2
			c0,0.1,0.1,0.2,0.2,0.2h2c0.1,0,0.2,0,0.2-0.1c0-0.1,0-0.2,0-0.2C84.8,89,84.7,87.8,84.6,87.3z M82.4,84.4v2.1
			c-0.5,0.8-1.2,1-2.4,1c-0.8,0-1.4-0.3-1.7-0.8c-0.2-0.4-0.2-0.8,0-1.1c0.2-0.3,0.5-0.6,0.9-0.8c0.5-0.2,1.1-0.4,2.5-0.4
			C81.9,84.4,82.2,84.4,82.4,84.4z"/>
		<path class="st1" d="M14.8,86.7c0-0.1-0.1-0.1-0.2-0.1s-0.1,0-0.2,0c-0.7,0.4-1.5,0.8-2.9,0.8c-1.9,0-3.3-1.5-3.3-3.6
			s1.5-3.6,3.4-3.6c1.1,0,2.1,0.4,2.6,0.8c0.1,0,0.1,0.1,0.2,0c0.1,0,0.1-0.1,0.2-0.1l0.9-1.5c0.1-0.1,0-0.2-0.1-0.2
			c-1.1-0.7-2.3-1.1-3.7-1.1c-3.2,0-5.7,2.6-5.7,5.8c0,3.2,2.5,5.7,5.7,5.7c1.7,0,2.7-0.4,3.8-0.9c0.1-0.1,0.2-0.2,0.1-0.2
			L14.8,86.7z"/>
		<path class="st1" d="M105.6,78.2c-3,0-5.3,2.4-5.3,5.8c0,3.3,2.3,5.7,5.4,5.7c2.2,0,3.6-0.8,4.5-1.4c0.1-0.1,0.1-0.2,0.1-0.2
			l-0.9-1.5c0-0.1-0.1-0.1-0.2-0.1c-0.1,0-0.1,0-0.2,0c-0.8,0.6-1.8,1.2-3.5,1.2s-2.9-1.2-3-3.1l7.9-0.1c0.1,0,0.2-0.1,0.2-0.2v-0.4
			C110.8,80.5,108.8,78.2,105.6,78.2z M103,82.5c0.3-1.7,1.6-2.3,2.6-2.3c1.6,0,2.6,0.8,2.8,2.3H103z"/>
	</g>
</g>
</svg>
