<?xml version="1.0" encoding="utf-8"?>
<!-- Generator: Adobe Illustrator 25.3.1, SVG Export Plug-In . SVG Version: 6.00 Build 0)  -->
<svg version="1.1" id="レイヤー_1" xmlns="http://www.w3.org/2000/svg" xmlns:xlink="http://www.w3.org/1999/xlink" x="0px"
	 y="0px" viewBox="0 0 110 60" style="enable-background:new 0 0 110 60;" xml:space="preserve">
<style type="text/css">
	.st0{fill:none;}
	.st1{fill:#292524;}
</style>
<rect class="st0" width="110" height="60"/>
<g>
	<path class="st1" d="M108.9,8.3c0-0.2,0-0.2,0-0.3l-4.4-5.5c0,0-0.2,0-0.3,0c0-0.2-0.2,0-0.2,0l-38.1,30c-6,5.2-9.6,11.5-11,19.8
		h-4.2c-2.4-13.6-11.4-22.4-24-23.7L54.3,6.2c0.2,0,0.2-0.2,0.2-0.3c0-0.2,0-0.2-0.2-0.3l-4.7-5c-0.2-0.2-0.3-0.2-0.5,0L11.6,33.6
		C4.3,40.4,1.1,48.6,1.1,59.3c0,0.2,0.2,0.3,0.3,0.3h6.8c0.2,0,0.3-0.2,0.3-0.3c0-13.8,7.1-23.8,17-23.8c10.1,0,17.5,9.4,18.5,23.4
		c0,0.2,0.2,0.3,0.3,0.3h16.7c0.2,0,0.3-0.2,0.3-0.3c1-14.4,7.6-23.4,17.5-23.4c10.7,0,18,9.7,18,23.8c0,0.2,0.2,0.3,0.3,0.3h6.8
		c0.2,0,0.3-0.2,0.3-0.3c0-16.5-8.8-28.1-22.7-30.3l27.1-20.3C108.8,8.7,108.8,8.5,108.9,8.3z"/>
</g>
</svg>
