<?xml version="1.0" encoding="utf-8"?>
<!-- Generator: Adobe Illustrator 26.2.1, SVG Export Plug-In . SVG Version: 6.00 Build 0)  -->
<svg version="1.1" id="レイヤー_1" xmlns="http://www.w3.org/2000/svg" xmlns:xlink="http://www.w3.org/1999/xlink" x="0px"
	 y="0px" viewBox="0 0 992 500" style="enable-background:new 0 0 992 500;" xml:space="preserve">
<style type="text/css">
	.st0{fill:#EFFFFF;stroke:#EFFFFF;stroke-miterlimit:10;}
	.st1{fill:#F5FFE5;}
	.st2{fill:none;stroke:#3C3C3C;stroke-width:1.5;stroke-linecap:round;stroke-miterlimit:10;}
	.st3{fill:none;stroke:#F5FFE5;stroke-width:5;stroke-miterlimit:10;}
	.st4{fill:none;stroke:#3C3C3C;stroke-width:1.5;stroke-miterlimit:10;}
	.st5{fill:#FF947F;}
</style>
<rect x="0.5" class="st0" width="991" height="498.9"/>
<path class="st1" d="M982.3,215.7c-6.6,5.9-14.7,9.6-23.5,10.3l-14.4-0.9c-11.6-2.1-22.3-6.9-32.4-12.8c-9.9-5.8-20.8-9.5-32.1-11.4
	c-18.6-3.1-29.8,0.7-50.8-0.7l-9.3-0.6c-13.3-4.7-20.3-12.6-32-15.1c-9.3-1.9-15.2,2.8-26.1,1.5c-9.5-1.1-15.7-5.9-21.2-6
	c-5.5-0.1-10.8,2-15.6,4.5c-6.6,3.4-12.9,7.7-20.2,9l-11.6,0c-7.9-0.9-14.8-4.2-22.1-7c-13.7-5.3-27.6-8.5-42.3-8
	c-15.3,0.5-30.3,4-44.9,8.4l-11.1,1.4c-26.3,2.1-58.2,0.9-82.9-11.2l-14.5-1.1c-16,2.6-29.5-4.2-45-6.1c-7.2-1.1-14.5,0.1-21.1,3.1
	c-14.7,6.6-24.4,21.4-41.4,29.4h-12.6c-8.8-2.9-17.7-5.5-26.7-7.7c-8.6-2.1-16.5-3.9-25.3-2c-9.3,2-17.9,6.2-27.4,7.8
	c-10.7,1.8-21.8,1.9-32.6,0.9l-11.7,0.6c-19.3,2.6-34.9,4-51.8,0.8c-12.4-2.3-25.1-2-36.9,3c-9.8,4.2-16.6,12.8-25.5,18.4l-8.8,5.9
	c-9.3,6-19.8,11.1-30.5,13.6c-11.1,2.6-22.8,2.2-33.6,6.6c-6.3,2.6-12.1,6-17.8,9.6c-5.7,3.6-12.2,6.9-16.8,11.9
	c-2.3,2.5-6,6-9.3,9.4v219.8h991V206.8C988.3,210.1,984.9,213.4,982.3,215.7z"/>
<g id="レイヤー_4">
</g>
<path class="st2" d="M958.8,225.5c8.8-0.6,17.1-4.1,23.5-10.3"/>
<path class="st2" d="M829.1,199.9c21.1,1.3,32.2-2.5,50.8,0.7c11.3,1.9,22.2,5.6,32.1,11.4c10,5.9,20.8,10.7,32.4,12.8"/>
<path class="st2" d="M704.7,193.2c7.3-1.3,13.6-5.6,20.2-9c4.8-2.5,10.1-4.6,15.6-4.5c5.5,0.1,11.7,4.8,21.2,6
	c11,1.3,16.9-3.5,26.1-1.5c11.7,2.5,18.7,10.4,32,15.1"/>
<path class="st2" d="M583.8,186.6c14.6-4.4,29.6-7.9,44.9-8.4c14.7-0.5,28.7,2.7,42.3,8c7.3,2.8,14.2,6.1,22.1,7"/>
<path class="st2" d="M489.8,176.8c24.7,12.2,56.6,13.4,82.9,11.2"/>
<path class="st2" d="M367.8,202.1c17-8.1,26.7-22.9,41.4-29.4c6.7-3,13.9-4.2,21.1-3.1c15.5,1.9,29,8.7,45,6.1"/>
<path class="st2" d="M342.1,198c4.4,1.3,8.7,2.6,13.1,4"/>
<path class="st2" d="M243.2,201.1c10.8,0.9,21.9,0.9,32.6-0.9c9.4-1.6,18.1-5.8,27.4-7.8c8.8-1.9,16.7-0.1,25.3,2
	c2.5,0.6,5,1.2,7.4,1.9"/>
<path class="st2" d="M117.3,223.9c8.9-5.6,15.6-14.2,25.5-18.4c11.8-5,24.4-5.3,36.9-3c16.9,3.2,32.5,1.8,51.8-0.8"/>
<path class="st2" d="M9.8,271.5c5-4.7,11.1-8.2,16.8-11.9c5.7-3.6,11.6-7,17.8-9.6c10.7-4.4,22.4-4,33.6-6.6
	c10.8-2.5,21.3-7.6,30.5-13.6"/>
<path class="st2" d="M386.6,268c4.7-1.2,9.9-0.2,13.8,2.6c3.9,2.8,6.5,7.4,6.9,12.2"/>
<path class="st2" d="M329.9,262.7c16.4-3.5,32.1,1.4,44.7,5.3"/>
<path class="st2" d="M209.5,230.4c22,0,28.6,5.6,41.7,9.1c12.2,3.2,24.6,1.4,40.8,6.2c12.7,3.7,14.4,10.1,29.6,15.3"/>
<path class="st2" d="M812.8,230.6c14.1,2.1,27.4,8.2,36.1,15.2c8.1,6.4,17.9,12.7,33.9,15.2"/>
<path class="st2" d="M754.5,232.6c18,1,29.4-7.9,47.2-4.3"/>
<path class="st2" d="M615.9,214.9c24.6,2.8,31.5-8.7,51.4,3.4c10.8,6.5,23.8,4.4,34.6,1.4"/>
<path class="st2" d="M531.2,237.3c6.5-3.3,7.9-11.1,11-17c3.8-7.3,11.5-11.1,19.5-12c0.5-0.1,1-0.1,1.5-0.1
	c6.9-0.5,13.6,0.9,20.3,2.4c7.2,1.6,14.5,2.9,21.8,3.8"/>
<path class="st2" d="M485.2,234c7.2-11.8,23.9,4.5,36.5,4.5"/>
<path class="st2" d="M648.6,263.4c18.1-0.2,31.5,7.8,46,14.6c5.8,1.9,11.6,3.9,17.2,2.6"/>
<path class="st2" d="M537.6,263.8c30.7,8.8,48.6-18.4,73.6-11.2c7.5,2.1,17.3,6.9,24.8,9.1"/>
<path class="st2" d="M853.1,284.7c6-3.5,19.2-7.6,26.4-6.6c18.4,2.9,31.9,12.5,47.4-2.1c8.7-7.7,18.4-15.5,30-15"/>
<path class="st2" d="M748.5,291.7c14.8,1.2,28-16.7,42.4-6.1c4.3,3.2,8.9,8.6,14.9,6.5c5.6-2,8.1-8.4,14.4-9.3
	c6.6-1,15.6,5,22.5,4.6"/>
<path class="st2" d="M657.4,337.7c74.2,8,147.7,13.8,222.1,18.4"/>
<path class="st2" d="M425.2,303.1c36.1,7,71.1,12,107.3,18"/>
<line class="st3" x1="165.2" y1="225.7" x2="165.2" y2="276.9"/>
<line class="st3" x1="319.5" y1="268.2" x2="319.5" y2="288.4"/>
<line class="st3" x1="352.5" y1="211.4" x2="352.5" y2="287"/>
<line class="st3" x1="429.1" y1="233.3" x2="429.1" y2="290"/>
<line class="st3" x1="456.9" y1="233.3" x2="456.9" y2="291.9"/>
<line class="st3" x1="477" y1="219.2" x2="477" y2="293.2"/>
<line class="st3" x1="535" y1="275.8" x2="535" y2="293.9"/>
<line class="st3" x1="615.7" y1="258.7" x2="615.7" y2="298"/>
<line class="st3" x1="631.3" y1="280.7" x2="631.3" y2="299.1"/>
<line class="st3" x1="656.7" y1="231.9" x2="656.7" y2="300.8"/>
<line class="st3" x1="702.6" y1="243.9" x2="702.6" y2="315.6"/>
<line class="st3" x1="739.3" y1="271.4" x2="739.3" y2="304.1"/>
<line class="st3" x1="762.7" y1="263.5" x2="762.7" y2="306.1"/>
<line class="st3" x1="834.3" y1="251.2" x2="834.3" y2="309.3"/>
<line class="st3" x1="850.2" y1="271.4" x2="850.2" y2="310.3"/>
<line class="st3" x1="922.6" y1="251.2" x2="922.6" y2="314.3"/>
<line class="st3" x1="970" y1="238.2" x2="970" y2="344.1"/>
<line class="st3" x1="647.5" y1="282" x2="647.5" y2="300.4"/>
<line class="st3" x1="547.8" y1="231.7" x2="547.8" y2="316.8"/>
<line class="st3" x1="339" y1="203.4" x2="339" y2="321"/>
<line class="st3" x1="182" y1="217.2" x2="182" y2="277.7"/>
<line class="st4" x1="165.2" y1="228.2" x2="165.2" y2="276.9"/>
<rect x="162.7" y="225.7" class="st5" width="5.1" height="5.1"/>
<line class="st4" x1="319.5" y1="270.6" x2="319.5" y2="288.4"/>
<rect x="317" y="268.2" class="st5" width="5.1" height="5.1"/>
<line class="st4" x1="352.5" y1="213.8" x2="352.5" y2="287"/>
<rect x="349.9" y="211.4" class="st5" width="5.1" height="5.1"/>
<line class="st4" x1="429.1" y1="235.7" x2="429.1" y2="290"/>
<rect x="426.6" y="233.3" class="st5" width="5.1" height="5.1"/>
<line class="st4" x1="456.9" y1="235.7" x2="456.9" y2="291.9"/>
<rect x="454.3" y="233.3" class="st5" width="5.1" height="5.1"/>
<line class="st4" x1="477" y1="221.6" x2="477" y2="293.2"/>
<rect x="474.5" y="219.2" class="st5" width="5.1" height="5.1"/>
<line class="st4" x1="535" y1="278.2" x2="535" y2="293.9"/>
<rect x="532.5" y="275.8" class="st5" width="5.1" height="5.1"/>
<line class="st4" x1="615.7" y1="261.1" x2="615.7" y2="298"/>
<rect x="613.2" y="258.7" class="st5" width="5.1" height="5.1"/>
<line class="st4" x1="631.3" y1="283.1" x2="631.3" y2="299.1"/>
<rect x="628.8" y="280.7" class="st5" width="5.1" height="5.1"/>
<line class="st4" x1="656.7" y1="234.4" x2="656.7" y2="300.8"/>
<rect x="654.2" y="231.9" class="st5" width="5.1" height="5.1"/>
<line class="st4" x1="702.6" y1="246.3" x2="702.6" y2="315.6"/>
<rect x="700.1" y="243.9" class="st5" width="5.1" height="5.1"/>
<line class="st4" x1="739.3" y1="273.8" x2="739.3" y2="304.1"/>
<rect x="736.7" y="271.4" class="st5" width="5.1" height="5.1"/>
<line class="st4" x1="762.7" y1="266" x2="762.7" y2="306.1"/>
<rect x="760.2" y="263.5" class="st5" width="5.1" height="5.1"/>
<line class="st4" x1="834.3" y1="253.6" x2="834.3" y2="309.3"/>
<rect x="831.8" y="251.2" class="st5" width="5.1" height="5.1"/>
<line class="st4" x1="850.2" y1="273.8" x2="850.2" y2="310.3"/>
<rect x="847.6" y="271.4" class="st5" width="5.1" height="5.1"/>
<line class="st4" x1="922.6" y1="253.6" x2="922.6" y2="314.3"/>
<rect x="920" y="251.2" class="st5" width="5.1" height="5.1"/>
<line class="st4" x1="970" y1="240.7" x2="970" y2="344.1"/>
<rect x="967.5" y="238.2" class="st5" width="5.1" height="5.1"/>
<line class="st4" x1="647.5" y1="284.4" x2="647.5" y2="300.4"/>
<rect x="644.9" y="282" class="st5" width="5.1" height="5.1"/>
<line class="st4" x1="547.8" y1="234.2" x2="547.8" y2="316.8"/>
<rect x="545.2" y="231.7" class="st5" width="5.1" height="5.1"/>
<line class="st4" x1="339" y1="177.9" x2="339" y2="321"/>
<rect x="336.5" y="175.3" class="st5" width="5.1" height="5.1"/>
<line class="st4" x1="182" y1="219.6" x2="182" y2="277.7"/>
<rect x="179.5" y="217.2" class="st5" width="5.1" height="5.1"/>
</svg>
