<?xml version="1.0" encoding="utf-8"?>
<!-- Generator: Adobe Illustrator 25.3.1, SVG Export Plug-In . SVG Version: 6.00 Build 0)  -->
<svg version="1.1" id="レイヤー_1" xmlns="http://www.w3.org/2000/svg" xmlns:xlink="http://www.w3.org/1999/xlink" x="0px"
	 y="0px" viewBox="0 0 280 60" style="enable-background:new 0 0 280 60;" xml:space="preserve">
<style type="text/css">
	.st0{fill:none;}
	.st1{fill:#292524;}
</style>
<rect x="0.1" y="0" class="st0" width="280" height="60"/>
<g>
	<path class="st1" d="M109.4,8.3c0-0.2,0-0.2,0-0.3L105,2.5c0,0-0.2,0-0.3,0c0-0.2-0.2,0-0.2,0l-38.1,30c-6,5.2-9.6,11.5-11,19.8
		h-4.2c-2.4-13.6-11.4-22.4-24-23.7L54.8,6.2c0.2,0,0.2-0.2,0.2-0.3c0-0.2,0-0.2-0.2-0.3l-4.7-5c-0.2-0.2-0.3-0.2-0.5,0L12.1,33.6
		C4.8,40.4,1.6,48.6,1.6,59.3c0,0.2,0.2,0.3,0.3,0.3h6.8c0.2,0,0.3-0.2,0.3-0.3c0-13.8,7.1-23.8,17-23.8c10.1,0,17.5,9.4,18.5,23.4
		c0,0.2,0.2,0.3,0.3,0.3h16.7c0.2,0,0.3-0.2,0.3-0.3c1-14.4,7.6-23.4,17.5-23.4c10.7,0,18,9.7,18,23.8c0,0.2,0.2,0.3,0.3,0.3h6.8
		c0.2,0,0.3-0.2,0.3-0.3c0-16.5-8.8-28.1-22.7-30.3l27.1-20.3C109.3,8.7,109.3,8.5,109.4,8.3z"/>
	<g>
		<path class="st1" d="M137.3,48.3c-1.2,0-2.2,0.6-2.9,1.2v-6.7c0-0.1-0.1-0.1-0.1-0.1h-1.9c-0.1,0-0.1,0.1-0.1,0.1v16.1
			c0,0.1,0.1,0.1,0.1,0.1h1.9c0.1,0,0.1-0.1,0.1-0.1v-6.9c0.5-0.7,1.4-1.5,2.5-1.5c1.4,0,2.2,0.9,2.2,2.7v5.9c0,0.1,0.1,0.1,0.1,0.1
			h1.9c0.1,0,0.1-0.1,0.1-0.1l0.1-4.6v-0.1v-1.5C141.3,50,139.8,48.3,137.3,48.3z"/>
		<path class="st1" d="M160.6,48.5c-0.9,0-2,0.3-2.8,0.7V43c0-0.1-0.1-0.1-0.1-0.1h-1.9c-0.1,0-0.1,0.1-0.1,0.1v16.1
			c0,0.1,0.1,0.1,0.1,0.1h1.9c0.1,0,0.1-0.1,0.1-0.1v-0.5c0.7,0.5,1.7,0.9,2.8,0.9c3.1,0,5.3-2.2,5.3-5.6
			C165.9,50.8,163.8,48.5,160.6,48.5z M163.6,53.8c0,2.2-1.2,3.6-3,3.6c-1.2,0.1-2-0.3-2.7-1.2v-5.1c0.6-0.4,1.5-0.7,2.8-0.7
			C162.4,50.3,163.6,51.8,163.6,53.8z"/>
		<path class="st1" d="M184.7,57.3c-0.5,0.1-1.4,0.1-1.8,0c-0.3-0.2-0.4-0.4-0.4-1.2v-5.4h2c0.1,0,0.1-0.1,0.1-0.1v-1.7
			c0-0.1-0.1-0.1-0.1-0.1h-2v-3.4c0-0.1-0.1-0.1-0.1-0.1h-1.9c-0.1,0-0.1,0.1-0.1,0.1v3.4h-1.7c-0.1,0-0.1,0.1-0.1,0.1v1.7
			c0,0.1,0.1,0.1,0.1,0.1h1.6v5.8c0,1.2,0.4,2.1,1.1,2.7c0.5,0.3,1.2,0.4,1.9,0.4c0.6,0,1.2-0.1,1.6-0.2c0.1,0,0.1-0.1,0.1-0.1v-1.7
			c0-0.1,0-0.1-0.1-0.1C184.8,57.3,184.8,57.2,184.7,57.3z"/>
		<path class="st1" d="M204.5,52.8l4.9-3.8c0.1-0.1,0.1-0.1,0.1-0.2s-0.1-0.1-0.1-0.1h-2.7c-0.1,0-0.1,0-0.1,0.1l-4.8,3.8v-9.5
			c0-0.1-0.1-0.1-0.1-0.1h-2c-0.1,0-0.1,0.1-0.1,0.1v16.3c0,0.1,0.1,0.1,0.1,0.1h2c0.1,0,0.1-0.1,0.1-0.1v-4l1.2-0.9l4.1,5.1
			c0,0.1,0.1,0.1,0.1,0.1h2.4c0.1,0,0.1-0.1,0.1-0.1s0-0.1,0-0.2L204.5,52.8z"/>
		<path class="st1" d="M152,57.3v-4.6c0-1.4-0.3-2.4-0.9-3.1c-0.7-0.7-1.8-1.1-3.3-1.1c-1.4,0-2.8,0.6-3.5,0.9
			c-0.1,0.1-0.1,0.1-0.1,0.2l0.7,1.6c0,0.1,0.1,0.1,0.1,0.1c0.1,0,0.1,0,0.1,0c0.5-0.4,1.7-0.9,2.6-0.9c1.4,0,2.1,0.6,2.1,2.1v0.1
			c-2.2-0.1-3.8,0.3-4.7,1c-1.3,0.9-1.8,2.4-1.3,4c0.5,1.2,1.4,1.8,2.8,2c0.1,0,0.3,0,0.4,0c1.2,0,2.1-0.3,2.9-0.8
			c0,0.1,0.1,0.2,0.1,0.4v0.1c0,0.1,0.1,0.1,0.1,0.1h1.9c0.1,0,0.1,0,0.1-0.1s0-0.1,0-0.1C152.2,58.9,152.1,57.7,152,57.3z
			 M149.9,54.4v2c-0.7,0.8-1.4,0.9-2.3,0.9c-0.7,0-1.3-0.3-1.6-0.8c-0.1-0.4-0.1-0.7,0-1.1c0.1-0.3,0.4-0.6,0.9-0.7
			c0.4-0.2,1-0.4,2.4-0.4C149.5,54.4,149.7,54.4,149.9,54.4z"/>
		<path class="st1" d="M176,57.3v-4.6c0-1.4-0.3-2.4-0.9-3.1c-0.7-0.7-1.8-1.1-3.3-1.1c-1.4,0-2.8,0.6-3.5,0.9
			c-0.1,0.1-0.1,0.1-0.1,0.2l0.7,1.6c0,0.1,0.1,0.1,0.1,0.1c0.1,0,0.1,0,0.1,0c0.5-0.4,1.7-0.9,2.6-0.9c1.4,0,2.1,0.6,2.1,2.1v0.1
			c-2.2-0.1-3.8,0.3-4.7,1c-1.3,0.9-1.8,2.4-1.3,4c0.5,1.2,1.4,1.8,2.8,2c0.1,0,0.3,0,0.4,0c1.2,0,2.1-0.3,2.9-0.8
			c0,0.1,0.1,0.2,0.1,0.4v0.1c0,0.1,0.1,0.1,0.1,0.1h1.9c0.1,0,0.1,0,0.1-0.1s0-0.1,0-0.1C176.2,58.9,176.1,57.7,176,57.3z
			 M173.9,54.4v2c-0.7,0.8-1.4,0.9-2.3,0.9c-0.7,0-1.3-0.3-1.6-0.8c-0.1-0.4-0.1-0.7,0-1.1c0.1-0.3,0.4-0.6,0.9-0.7
			c0.4-0.2,1-0.4,2.4-0.4C173.5,54.4,173.7,54.4,173.9,54.4z"/>
		<path class="st1" d="M195.7,57.3v-4.6c0-1.4-0.3-2.4-0.9-3.1c-0.7-0.7-1.8-1.1-3.3-1.1s-2.8,0.6-3.5,0.9c-0.1,0.1-0.1,0.1-0.1,0.2
			l0.7,1.6c0,0.1,0.1,0.1,0.1,0.1c0.1,0,0.1,0,0.1,0c0.5-0.4,1.7-0.9,2.6-0.9c1.4,0,2,0.6,2,2.1v0.1c-2.2-0.1-3.8,0.3-4.7,1
			c-1.3,0.9-1.8,2.4-1.3,4c0.5,1.2,1.4,1.8,2.8,2c0.1,0,0.3,0,0.4,0c1.2,0,2.1-0.3,2.9-0.8c0,0.1,0.1,0.2,0.1,0.4v0.1
			c0,0.1,0.1,0.1,0.1,0.1h1.9c0.1,0,0.1,0,0.1-0.1s0-0.1,0-0.1C195.9,58.9,195.8,57.7,195.7,57.3z M193.6,54.4v2
			c-0.5,0.7-1.2,0.9-2.3,0.9c-0.7,0-1.3-0.3-1.6-0.8c-0.1-0.4-0.1-0.7,0-1.1c0.1-0.3,0.4-0.6,0.9-0.7c0.4-0.2,1-0.4,2.4-0.4
			C193.1,54.4,193.4,54.4,193.6,54.4z"/>
		<g>
			<path class="st1" d="M262.7,43.5h-10.4c-0.1,0-0.1,0.1-0.1,0.1v15.5c0,0.1,0.1,0.1,0.1,0.1h10.4c0.1,0,0.1-0.1,0.1-0.1v-2
				c0-0.1-0.1-0.1-0.1-0.1h-8.2v-4.6h7.7c0.1,0,0.1-0.1,0.1-0.1v-1.7c0-0.1-0.1-0.1-0.1-0.1h-7.8v-4.7h8.2c0.1,0,0.1-0.1,0.1-0.1
				v-1.8C262.8,43.6,262.7,43.5,262.7,43.5z"/>
			<path class="st1" d="M275.9,50.8c1-0.5,2-1.6,2-3.1c0-2.6-1.9-4.1-5-4.1h-5.5c-0.1,0-0.1,0.1-0.1,0.1v15.3c0,0.1,0.1,0.1,0.1,0.1
				h5.4c3.7,0,5.8-1.7,5.8-4.7C278.5,52.9,277.5,51.6,275.9,50.8z M272.6,49.8h-2.9v-4.1h3c2,0,2.9,0.7,2.9,2.1
				C275.4,49.2,274.6,49.8,272.6,49.8z M269.7,51.9h3c2.4,0,3.5,0.8,3.5,2.5s-1.1,2.5-3.6,2.5h-2.9V51.9z"/>
			<path class="st1" d="M249.3,43.5h-2c-0.1,0-0.1,0.1-0.1,0.1l-3.3,11.9l-3.3-11.9c0-0.1-0.1-0.1-0.1-0.1h-2.2
				c-0.1,0-0.1,0.1-0.1,0.1l-3.2,11.9l-3.2-11.9c0-0.1-0.1-0.1-0.1-0.1h-2.1c-0.1,0-0.1,0-0.1,0.1c0,0.1-0.1,0.1,0,0.1l4.3,15.5
				c0,0.1,0.1,0.1,0.1,0.1h2.2c0.1,0,0.1-0.1,0.1-0.1l3.2-11.9l3.2,11.9c0,0.1,0.1,0.1,0.1,0.1h2.2c0.1,0,0.1-0.1,0.1-0.1l4.3-15.5
				c0-0.1,0-0.1,0-0.1C249.4,43.5,249.4,43.5,249.3,43.5z"/>
		</g>
		<path class="st1" d="M128.7,56.7c0-0.1-0.1-0.1-0.1-0.1c-0.1,0-0.1,0-0.1,0c-0.7,0.4-1.4,0.8-2.8,0.8c-1.8,0-3.2-1.4-3.2-3.5
			s1.4-3.5,3.3-3.5c1,0,2,0.4,2.5,0.8c0.1,0,0.1,0.1,0.1,0c0.1,0,0.1-0.1,0.1-0.1l0.9-1.4c0.1-0.1,0-0.2-0.1-0.2c-1-0.7-2.2-1-3.5-1
			c-3,0-5.5,2.5-5.5,5.6c0,3.1,2.4,5.5,5.5,5.5c1.6,0,2.6-0.4,3.7-0.9c0.1-0.1,0.1-0.1,0.1-0.2L128.7,56.7z"/>
		<path class="st1" d="M215.8,48.5c-2.9,0-5.1,2.3-5.1,5.6c0,3.2,2.2,5.5,5.2,5.5c2.1,0,3.5-0.7,4.3-1.3c0.1-0.1,0.1-0.1,0.1-0.2
			l-0.9-1.4c0-0.1-0.1-0.1-0.1-0.1s-0.1,0-0.1,0c-0.8,0.6-1.7,1.2-3.3,1.2c-1.6,0-2.7-1.2-2.9-3l7.6-0.1c0.1,0,0.1-0.1,0.1-0.1v-0.4
			C220.9,50.7,218.9,48.5,215.8,48.5z M213.4,52.6c0.3-1.7,1.5-2.2,2.5-2.2c1.5,0,2.5,0.7,2.7,2.2H213.4z"/>
	</g>
</g>
</svg>
