<?xml version="1.0" encoding="utf-8"?>
<!-- Generator: Adobe Illustrator 25.3.1, SVG Export Plug-In . SVG Version: 6.00 Build 0)  -->
<svg version="1.1" id="レイヤー_1" xmlns="http://www.w3.org/2000/svg" xmlns:xlink="http://www.w3.org/1999/xlink" x="0px"
	 y="0px" viewBox="0 0 100 100" style="enable-background:new 0 0 100 100;" xml:space="preserve">
<style type="text/css">
	.st0{fill:none;}
	.st1{fill:#57534E;}
</style>
<g id="レイヤー_2_1_">
	<g id="waku">
		<rect y="0" class="st0" width="100" height="100"/>
	</g>
	<g id="編集モード">
		<path class="st1" d="M71.7,58.6c3.1-3.9,4.6-7.6,4.6-11.2c-0.1-3.1-1.5-5.9-3.8-7.9c-3.4-2.8-8.9-4.2-14.3-4.8
			c-0.6,0.9-1.3,1.7-2.2,2.3c-1.5,1.2-3.4,1.8-5.4,1.8h-0.1c-1.9,0-3.8-0.6-5.3-1.8c-0.7-0.6-1.4-1.2-1.9-2
			c-4.2,1.1-7.9,3.5-10.6,6.8L32.5,42c-1.4,1.7-2.8,3.2-4.4,4.7c-1.6,1.4-3.5,2.5-5.5,3.3c-0.7,0.3-1.5,0.6-2.2,0.9l1.6,5.8
			c3.1-0.7,6-1.8,8.8-3.3c0.3-0.2,0.7-0.4,1-0.6c0.3-0.2,0.8-0.6,1.3-0.8h0.7c0.1,2,0.8,4,2,5.7c0.6,0.9,1.4,1.7,2.2,2.4
			c2.8,2.3,6.3,3.7,9.9,4.1c2,0.2,4,0.2,6-0.1c3.6-0.5,7.1-2,9.8-4.4c0.2-0.2,0.4-0.4,0.6-0.6l0.8,0.9l1.3,1.4
			c-0.8,1.1-1.7,2-2.7,2.8c-1.5,1.2-3.1,2.1-4.9,2.7V76h-2v-8.5c-0.8,0.2-1.6,0.4-2.5,0.5l-0.5,0c-0.7,0.1-1.3,0.1-2.1,0.2V76h-2
			v-7.8c-0.7,0-1.3,0-2-0.1c-0.4,0-0.7-0.1-1.1-0.1c-0.7-0.1-1.4-0.2-2.1-0.4V76h-2v-9c-1.7-0.6-3.3-1.4-4.7-2.4
			c-2.3-1.7-4.1-4-5.1-6.6c-9.9,1.4-10.2,11.1-7.6,22h8.5c-1.5-7.6-0.9-11.4,4.1-12.1L37.6,80h26l-0.1-12.1c5,0.6,5.6,4.4,4.1,12.1
			h8.5C78.8,70.1,78.8,61.3,71.7,58.6z"/>
		<path class="st1" d="M48.1,36.4L48.1,36.4c0.8,0.3,1.6,0.4,2.4,0.5h0.1c0.8,0,1.7-0.2,2.5-0.5l0,0c3.6-1.4,5.4-5.4,4.1-9
			c-0.6-1.6-1.7-2.9-3.2-3.7c0.1-0.3,0.2-0.7,0.2-1c0,0,0,0,0-0.1c0-1.9-1.6-3.5-3.5-3.5l0,0c-1.9,0-3.5,1.6-3.5,3.5c0,0,0,0,0,0.1
			c0,0.3,0.1,0.7,0.2,1c-3.4,1.8-4.7,6.1-2.8,9.5C45.1,34.7,46.4,35.8,48.1,36.4L48.1,36.4z"/>
	</g>
</g>
<rect x="111.9" y="0" class="st0" width="180" height="43.3"/>
<text transform="matrix(1 0 0 1 111.9137 10.5601)" style="enable-background:new    ;"><tspan x="0" y="0" style="font-family:'KozGoPr6N-Regular-90ms-RKSJ-H'; font-size:12px;">カラー：</tspan><tspan x="48" y="0" style="font-family:'ArialMT'; font-size:12px;">#57534E</tspan></text>
<text transform="matrix(1 0 0 1 111.9137 24.9601)" style="enable-background:new    ;"><tspan x="0" y="0" style="font-family:'KozGoPr6N-Regular-90ms-RKSJ-H'; font-size:12px;">サイズ：</tspan><tspan x="48" y="0" style="font-family:'ArialMT'; font-size:12px;">100px * 100px</tspan></text>
<text transform="matrix(1 0 0 1 111.9137 39.3601)" style="enable-background:new    ;"><tspan x="0" y="0" style="font-family:'KozGoPr6N-Regular-90ms-RKSJ-H'; font-size:12px;">縮小：</tspan><tspan x="36" y="0" style="font-family:'ArialMT'; font-size:12px;">80%</tspan></text>
</svg>
