<?xml version="1.0" encoding="utf-8"?>
<!-- Generator: Adobe Illustrator 25.3.1, SVG Export Plug-In . SVG Version: 6.00 Build 0)  -->
<svg version="1.1" id="レイヤー_1" xmlns="http://www.w3.org/2000/svg" xmlns:xlink="http://www.w3.org/1999/xlink" x="0px"
	 y="0px" viewBox="0 0 100 100" style="enable-background:new 0 0 100 100;" xml:space="preserve">
<style type="text/css">
	.st0{fill:none;}
	.st1{fill:#57534E;}
</style>
<g id="レイヤー_2_1_">
	<g id="waku">
		<rect x="-0.1" y="-0.1" class="st0" width="100" height="100"/>
	</g>
	<g id="編集モード">
		<path class="st1" d="M50,14L50,14L50,14z"/>
		<path class="st1" d="M50,14L50,14L50,14z"/>
		<path class="st1" d="M74.4,27.6C69.4,19.1,60.3,14,50,14l0,0c0,0,10.8,14.4,10.8,31.6c-0.1,7.1-1.7,14-4.5,20.5H43.7
			c-2.8-6.4-4.4-13.4-4.5-20.5C39.2,28.4,50,14,50,14l0,0c-10.2,0-19.4,5.1-24.4,13.7c-4.4,7.5-4.8,16.5-1,23.3
			c4.5,7.9,10.6,14.9,17.8,20.5l0,0l3.5,14.6h8l3.5-14.6l0,0c7.2-5.6,13.3-12.4,17.9-20.4C79.2,44.1,78.8,35.2,74.4,27.6z M47.2,78
			l-1.4-6h8.6l-1.4,6H47.2z"/>
	</g>
</g>
</svg>
