<svg version="1.1" id="レイヤー_1" xmlns="http://www.w3.org/2000/svg" xmlns:xlink="http://www.w3.org/1999/xlink" x="0px"
	 y="0px" viewBox="0 0 20 20" enable-background="new 0 0 20 20" xml:space="preserve">
<g>
	<path  d="M0.9,19.1h3.9c0.2,0,0.4-0.1,0.5-0.3L15.9,1.4c0.1-0.2,0-0.5-0.3-0.5h-3.6c-0.2,0-0.3,0.1-0.4,0.2L0.8,18.8
		C0.7,18.9,0.8,19.1,0.9,19.1z"/>
	<path  d="M14.2,18.8l5-8c0.2-0.2,0-0.6-0.3-0.6h-3.6c-0.1,0-0.3,0.1-0.3,0.2l-5.1,8.2c-0.1,0.2,0,0.5,0.3,0.5h3.7
		C13.9,19.1,14.1,19,14.2,18.8z"/>
</g>
<rect fill="none" width="20" height="20"/>
</svg>
